<svg xmlns="http://www.w3.org/2000/svg" viewBox="0 0 64 64"><title>강한 비</title><path d="M15 45C9 45 5.5 41.6 5.5 36.5c0-5.2 3.7-9 8.8-9.6C15.5 19 21 14 28.3 14c7.1 0 12.9 4.7 14.2 11.5 1.3-.5 2.8-.8 4.3-.8 7 0 12.2 4.5 12.2 10.7C59 41.7 54 45 47.5 45Z" fill="#273F55"/><path d="M15 49.5l-2.5 5.8" stroke="#273F55" stroke-width="2.8" stroke-linecap="round"/><path d="M24 49.5l-2.5 5.8" stroke="#273F55" stroke-width="2.8" stroke-linecap="round"/><path d="M33 49.5l-2.5 5.8" stroke="#273F55" stroke-width="2.8" stroke-linecap="round"/><path d="M42 49.5l-2.5 5.8" stroke="#273F55" stroke-width="2.8" stroke-linecap="round"/><path d="M51 49.5l-2.5 5.8" stroke="#273F55" stroke-width="2.8" stroke-linecap="round"/><path d="m21 58-1.2 2.5m18-2.5-1.2 2.5" stroke="#273F55" stroke-width="2.5" stroke-linecap="round"/></svg>