<svg xmlns="http://www.w3.org/2000/svg" viewBox="0 0 64 64"><title>비</title><path d="M15 45C9 45 5.5 41.6 5.5 36.5c0-5.2 3.7-9 8.8-9.6C15.5 19 21 14 28.3 14c7.1 0 12.9 4.7 14.2 11.5 1.3-.5 2.8-.8 4.3-.8 7 0 12.2 4.5 12.2 10.7C59 41.7 54 45 47.5 45Z" fill="#EAF3F9"/><path d="M20 49.5c-.5 2.2-1.2 4.2-2.6 6.4" fill="none" stroke="#EAF3F9" stroke-width="2.8" stroke-linecap="round"/><path d="M32 49.5c-.5 2.2-1.2 4.2-2.6 6.4" fill="none" stroke="#EAF3F9" stroke-width="2.8" stroke-linecap="round"/><path d="M44 49.5c-.5 2.2-1.2 4.2-2.6 6.4" fill="none" stroke="#EAF3F9" stroke-width="2.8" stroke-linecap="round"/></svg>