<svg xmlns="http://www.w3.org/2000/svg" viewBox="0 0 320 120">
  <rect width="320" height="120" rx="16" fill="#F4F7FC"/>
  <g transform="translate(12,12) scale(0.8)"><rect width="120" height="120" rx="21.6" fill="#F4F7FC" stroke="#0C1F3F" stroke-width="0.8" stroke-opacity="0.15"/>
<rect x="12" y="45.6" width="96" height="38.4" rx="19.2" fill="#0C1F3F"/>
<rect x="29.88" y="56.74" width="2.64" height="16.13" rx="1.32" fill="#F4F7FC"/>
<circle cx="88.8" cy="64.8" r="18.05" fill="#F0A020"/>
<line x1="76.04" y1="46.57" x2="69.51" y2="37.23" stroke="#F0A020" stroke-width="2.88" stroke-linecap="round"/>
<line x1="88.8" y1="42.55" x2="88.8" y2="31.15" stroke="#F0A020" stroke-width="2.88" stroke-linecap="round"/>
<line x1="101.56" y1="46.57" x2="108.1" y2="37.23" stroke="#F0A020" stroke-width="2.88" stroke-linecap="round"/>
<rect x="12.6" y="20.64" width="40.8" height="12.73" rx="6.37" fill="#0C1F3F"/>
<ellipse cx="24.84" cy="21.12" rx="9.76" ry="9.76" fill="#0C1F3F"/>
<ellipse cx="37.9" cy="19.4" rx="12.31" ry="12.31" fill="#0C1F3F"/></g>
  <g transform="translate(122,32) scale(0.7)"><g class="wordmark-outline-300" fill="#0C1F3F">
  <path d="M370 0L40 1080L158 1080L429 193L700 1080L811 1080L1083 193L1355 1080L1471 1080L1141 0L1033 0L756 899L478 0Z" transform="matrix(0.022 0 0 -0.022 0 60)"/>
  <path d="M585 -30Q430 -30 317 39.5Q204 109 142 236.5Q80 364 80 538Q80 715 141.5 843.5Q203 972 315.5 1041Q428 1110 583 1110Q740 1110 851.5 1038.5Q963 967 1021.5 832Q1080 697 1077 507L204 507Q211 313 303 202Q402 82 583 82Q708 82 801.5 140.5Q895 199 950 308L1054 262Q989 122 866 46Q743 -30 585 -30ZM953 611Q938 786 857 885Q762 1001 585 1001Q402 1001 303 881Q220 780 206 611Z" transform="matrix(0.022 0 0 -0.022 31.362 60)"/>
  <path d="M452 -30Q327 -30 244.5 14Q162 58 121 130.5Q80 203 80 288Q80 380 118.5 442Q157 504 221.5 542Q286 580 364 599Q453 619 556 633.5Q659 648 753 659Q816 666 863 673Q863 833 798 914Q728 999 553 999Q430 999 350.5 943.5Q271 888 239 772L121 805Q158 952 270 1031Q382 1110 557 1110Q706 1110 807.5 1052Q909 994 949 889Q966 846 972 788.5Q978 731 978 673L978 0L873 0L873 187Q824 103 741 49Q619 -30 452 -30ZM458 76Q568 76 651 115.5Q734 155 785.5 226.5Q837 298 851 395Q861 449 862 512Q863 544 863 567Q815 562 758 556Q667 547 573 534Q479 521 403 501Q356 488 308.5 463.5Q261 439 229.5 396Q198 353 198 287Q198 238 222.5 189Q247 140 304 108Q361 76 458 76Z" transform="matrix(0.022 0 0 -0.022 55.398 60)"/>
  <path d="M713 0Q627 -19 543 -14.5Q459 -10 393.5 23.5Q328 57 295 127Q268 184 265 242Q262 300 262 375L262 975L20 975L20 1080L262 1080L262 1380L378 1380L378 1080L713 1080L713 975L378 975L378 377Q378 309 379.5 264.5Q381 220 400 183Q436 114 514 99.5Q592 85 713 104Z" transform="matrix(0.022 0 0 -0.022 78.554 60)"/>
  <path d="M931 0L931 562Q931 664 910.5 744Q890 824 848.5 880Q807 936 744.5 965Q682 994 597 994Q509 994 444.5 963.5Q380 933 338.5 878Q297 823 276.5 747.5Q256 672 256 583L256 0L140 0L140 1440L245 1440L245 918Q300 1005 385 1051Q486 1105 612 1105Q701 1105 771.5 1079Q842 1053 894 1005.5Q946 958 980 893.5Q1014 829 1030.5 752Q1047 675 1047 591L1047 0Z" transform="matrix(0.022 0 0 -0.022 94.714 60)"/>
  <path d="M585 -30Q430 -30 317 39.5Q204 109 142 236.5Q80 364 80 538Q80 715 141.5 843.5Q203 972 315.5 1041Q428 1110 583 1110Q740 1110 851.5 1038.5Q963 967 1021.5 832Q1080 697 1077 507L204 507Q211 313 303 202Q402 82 583 82Q708 82 801.5 140.5Q895 199 950 308L1054 262Q989 122 866 46Q743 -30 585 -30ZM953 611Q938 786 857 885Q762 1001 585 1001Q402 1001 303 881Q220 780 206 611Z" transform="matrix(0.022 0 0 -0.022 119.388 60)"/>
  <path d="M140 0L140 1080L245 1080L245 910Q254 926 265 941Q292 980 321 1005Q364 1045 422 1065.5Q480 1086 539 1089.5Q598 1093 646 1080L646 971Q582 986 510 977Q438 968 375 915Q320 867 295 803.5Q270 740 263 670.5Q256 601 256 535L256 0Z" transform="matrix(0.022 0 0 -0.022 143.864 60)"/>
</g>
  <g>
    <circle cx="182.5" cy="42.5" r="17.5" fill="#F0A020"/>
    <line x1="182.5" y1="25" x2="182.5" y2="14" stroke="#F0A020" stroke-width="2.8" stroke-linecap="round"/>
    <line x1="172.5" y1="28.2" x2="166.1" y2="19.2" stroke="#F0A020" stroke-width="2.8" stroke-linecap="round"/>
    <line x1="192.5" y1="28.2" x2="198.9" y2="19.2" stroke="#F0A020" stroke-width="2.8" stroke-linecap="round"/>
  </g>
  <g class="wordmark-outline-800" fill="#F0A020">
  <path d="M140 0L140 1440L416 1440L1042 480L1042 1440L1318 1440L1318 0L1042 0L416 960L416 0Z" transform="matrix(0.022 0 0 -0.022 208 60)"/>
</g></g>
</svg>
